<!-- Generated by IcoMoon.io -->
<svg version="1.1" xmlns="http://www.w3.org/2000/svg" width="32" height="32" viewBox="0 0 32 32">
<title>circle</title>
<path d="M13.901 0.082c0.021 0.096-0.239 0.178-0.629 0.185-0.164 0.007-0.458 0.048-0.65 0.103-0.362 0.103-0.793 0.212-1.203 0.315-0.315 0.075-0.67 0.198-0.909 0.315-0.109 0.055-0.239 0.096-0.287 0.096s-0.178 0.041-0.287 0.096c-0.103 0.048-0.315 0.144-0.465 0.212-0.15 0.062-0.321 0.144-0.376 0.178s-0.15 0.082-0.205 0.103c-0.055 0.020-0.15 0.062-0.205 0.096s-0.253 0.144-0.444 0.239c-0.185 0.096-0.431 0.232-0.547 0.308-0.109 0.075-0.267 0.164-0.342 0.205-0.547 0.28-1.901 1.381-2.742 2.215-0.834 0.841-1.935 2.195-2.215 2.742-0.041 0.075-0.13 0.226-0.205 0.342-0.075 0.109-0.212 0.356-0.308 0.547-0.096 0.185-0.205 0.39-0.239 0.444s-0.075 0.15-0.096 0.205c-0.020 0.055-0.068 0.15-0.103 0.205s-0.116 0.226-0.178 0.376c-0.068 0.15-0.164 0.362-0.212 0.465-0.055 0.109-0.096 0.246-0.096 0.315 0 0.062-0.034 0.15-0.075 0.191s-0.096 0.178-0.13 0.301c-0.027 0.13-0.089 0.321-0.123 0.438-0.075 0.219-0.226 0.745-0.356 1.265-0.185 0.745-0.232 1.491-0.232 3.487s0.048 2.742 0.232 3.487c0.13 0.52 0.28 1.046 0.356 1.265 0.034 0.109 0.096 0.308 0.123 0.438 0.034 0.123 0.089 0.26 0.13 0.301s0.075 0.13 0.075 0.191c0 0.068 0.041 0.205 0.096 0.315 0.048 0.103 0.144 0.315 0.212 0.465 0.062 0.15 0.144 0.321 0.178 0.376s0.082 0.15 0.103 0.205c0.020 0.055 0.068 0.15 0.103 0.205s0.082 0.15 0.103 0.205c0.020 0.055 0.068 0.15 0.103 0.205s0.096 0.164 0.13 0.239c0.041 0.075 0.13 0.226 0.205 0.342 0.075 0.109 0.164 0.267 0.205 0.342 0.28 0.547 1.381 1.901 2.215 2.742 0.841 0.834 2.195 1.935 2.742 2.215 0.075 0.041 0.232 0.13 0.342 0.205 0.116 0.075 0.267 0.164 0.342 0.205 0.075 0.034 0.198 0.103 0.274 0.15 0.28 0.157 0.342 0.191 0.444 0.232 0.055 0.020 0.15 0.068 0.205 0.103s0.15 0.082 0.205 0.103c0.178 0.068 0.574 0.246 0.773 0.342 0.109 0.055 0.246 0.096 0.315 0.096 0.062 0 0.15 0.034 0.191 0.075s0.178 0.096 0.301 0.13c0.13 0.027 0.328 0.089 0.438 0.123 0.219 0.075 0.745 0.226 1.265 0.356 0.745 0.185 1.491 0.232 3.487 0.232s2.742-0.048 3.487-0.232c0.52-0.13 1.046-0.28 1.265-0.356 0.116-0.034 0.308-0.096 0.438-0.123 0.123-0.034 0.26-0.089 0.301-0.13s0.13-0.075 0.191-0.075c0.068 0 0.205-0.041 0.315-0.096 0.103-0.048 0.315-0.144 0.465-0.212 0.15-0.062 0.321-0.144 0.376-0.178s0.15-0.082 0.205-0.103c0.055-0.020 0.15-0.062 0.205-0.096s0.26-0.144 0.444-0.239c0.191-0.096 0.438-0.232 0.547-0.308 0.116-0.075 0.267-0.164 0.342-0.205 0.171-0.089 0.909-0.615 1.477-1.060 0.622-0.485 1.894-1.744 2.325-2.304 0.54-0.691 1.080-1.436 1.156-1.593 0.041-0.075 0.13-0.232 0.205-0.342 0.075-0.116 0.212-0.362 0.308-0.547 0.185-0.356 0.26-0.506 0.376-0.704 0.041-0.062 0.089-0.164 0.109-0.219 0.068-0.178 0.246-0.574 0.342-0.773 0.055-0.109 0.096-0.239 0.096-0.287s0.041-0.178 0.096-0.287c0.116-0.239 0.239-0.595 0.315-0.909 0.103-0.41 0.212-0.841 0.315-1.203 0.055-0.191 0.096-0.485 0.103-0.65 0.007-0.39 0.089-0.65 0.185-0.629 0.062 0.014 0.082-0.506 0.082-2.031 0-1.696-0.014-2.051-0.096-2.051-0.103 0-0.178-0.287-0.178-0.67 0-0.13-0.041-0.397-0.096-0.588-0.103-0.362-0.212-0.793-0.315-1.203-0.075-0.315-0.198-0.67-0.315-0.909-0.055-0.109-0.096-0.239-0.096-0.287s-0.041-0.178-0.096-0.287c-0.048-0.103-0.144-0.315-0.212-0.465-0.062-0.15-0.144-0.321-0.178-0.376s-0.075-0.144-0.096-0.191c-0.082-0.205-0.116-0.274-0.342-0.663-0.13-0.226-0.267-0.472-0.308-0.547-0.082-0.164-0.212-0.362-0.568-0.889-0.246-0.356-0.26-0.397-0.157-0.506 0.062-0.068 0.109-0.171 0.109-0.226 0-0.062 0.048-0.198 0.103-0.301 0.205-0.397 0.062-1.6-0.232-1.894-0.041-0.041-0.075-0.109-0.075-0.15 0-0.096-0.629-0.718-0.725-0.718-0.034 0-0.103-0.034-0.144-0.075-0.294-0.294-1.497-0.438-1.894-0.232-0.103 0.055-0.239 0.103-0.301 0.103-0.055 0-0.157 0.048-0.226 0.109-0.109 0.103-0.15 0.089-0.506-0.157-0.526-0.356-0.725-0.485-0.889-0.568-0.075-0.041-0.321-0.178-0.547-0.308s-0.458-0.253-0.513-0.28c-0.055-0.020-0.15-0.068-0.205-0.103s-0.15-0.082-0.205-0.103c-0.178-0.068-0.574-0.246-0.773-0.342-0.109-0.055-0.239-0.096-0.287-0.096s-0.178-0.041-0.287-0.096c-0.239-0.116-0.595-0.239-0.909-0.315-0.41-0.103-0.841-0.212-1.203-0.315-0.191-0.055-0.458-0.096-0.588-0.096-0.383 0-0.67-0.075-0.67-0.178 0-0.082-0.356-0.096-2.051-0.096-1.525 0-2.044 0.021-2.031 0.082zM17.538 1.409c0.451 0.055 0.957 0.137 1.128 0.178s0.444 0.096 0.615 0.13c0.424 0.068 0.882 0.198 1.149 0.308 0.123 0.055 0.273 0.096 0.342 0.096 0.062 0 0.178 0.048 0.246 0.103 0.075 0.055 0.185 0.103 0.239 0.103 0.137 0 1.244 0.526 1.956 0.923 0.226 0.13 0.458 0.253 0.513 0.28s0.212 0.137 0.349 0.246c0.137 0.103 0.28 0.191 0.321 0.191 0.123 0 0.15 0.212 0.048 0.41-0.164 0.315-0.137 1.409 0.041 1.785 0.356 0.752 0.602 0.998 1.354 1.354 0.376 0.178 1.47 0.205 1.785 0.041 0.198-0.103 0.41-0.075 0.41 0.048 0 0.041 0.082 0.185 0.191 0.321 0.103 0.137 0.246 0.356 0.321 0.485 0.472 0.848 0.54 0.985 0.916 1.798 0.116 0.253 0.212 0.499 0.212 0.547s0.041 0.144 0.096 0.219c0.048 0.075 0.109 0.212 0.13 0.308s0.068 0.26 0.103 0.376c0.39 1.149 0.697 3.097 0.697 4.41 0 0.773-0.144 2.133-0.287 2.735-0.041 0.171-0.096 0.444-0.13 0.615-0.068 0.424-0.198 0.882-0.308 1.149-0.055 0.123-0.096 0.273-0.096 0.342 0 0.062-0.048 0.178-0.103 0.246-0.055 0.075-0.103 0.178-0.103 0.226 0 0.13-0.65 1.525-0.985 2.099-0.779 1.361-2.373 3.193-3.597 4.144-0.451 0.349-1.497 1.067-1.744 1.203-0.827 0.444-1.976 0.985-2.106 0.985-0.048 0-0.15 0.048-0.226 0.103-0.068 0.055-0.185 0.103-0.246 0.103-0.068 0-0.219 0.041-0.342 0.096-0.267 0.109-0.725 0.239-1.149 0.308-0.171 0.034-0.444 0.089-0.615 0.13-0.602 0.144-1.962 0.287-2.735 0.287s-2.133-0.144-2.735-0.287c-0.171-0.041-0.444-0.096-0.615-0.13-0.424-0.068-0.882-0.198-1.149-0.308-0.123-0.055-0.274-0.096-0.342-0.096-0.062 0-0.178-0.048-0.246-0.103-0.075-0.055-0.178-0.103-0.226-0.103-0.13 0-1.279-0.54-2.106-0.985-0.246-0.137-1.292-0.855-1.744-1.203-1.224-0.95-2.817-2.783-3.597-4.144-0.335-0.574-0.985-1.969-0.985-2.099 0-0.048-0.048-0.15-0.103-0.226-0.055-0.068-0.103-0.185-0.103-0.246 0-0.068-0.041-0.219-0.096-0.342-0.109-0.267-0.239-0.725-0.308-1.149-0.034-0.171-0.089-0.444-0.13-0.615-0.144-0.602-0.287-1.962-0.287-2.735s0.144-2.133 0.287-2.735c0.041-0.171 0.096-0.444 0.13-0.615 0.068-0.424 0.198-0.882 0.308-1.149 0.055-0.123 0.096-0.274 0.096-0.342 0-0.062 0.048-0.178 0.103-0.246 0.055-0.075 0.103-0.178 0.103-0.226 0-0.13 0.54-1.279 0.985-2.106 0.137-0.246 0.855-1.292 1.203-1.744 0.492-0.629 1.716-1.86 2.352-2.352 1.224-0.95 2.209-1.538 3.357-2.010 0.301-0.13 0.636-0.273 0.738-0.328 0.109-0.055 0.239-0.096 0.287-0.096 0.055 0 0.198-0.041 0.321-0.096 0.267-0.109 0.725-0.239 1.149-0.308 0.171-0.034 0.444-0.089 0.615-0.13 1.128-0.274 3.015-0.356 4.342-0.178z"></path>
<path d="M14.667 8.759c-0.109 0.041-0.342 0.096-0.513 0.123-0.561 0.109-1.484 0.485-2.017 0.834-0.109 0.068-0.253 0.15-0.315 0.178-0.424 0.198-1.867 1.641-2.065 2.065-0.027 0.062-0.109 0.198-0.178 0.315-0.349 0.54-0.725 1.463-0.834 2.017-0.027 0.171-0.089 0.417-0.123 0.547-0.096 0.308-0.096 2.154 0 2.462 0.034 0.13 0.096 0.376 0.123 0.547 0.109 0.554 0.485 1.477 0.834 2.017 0.068 0.109 0.15 0.253 0.178 0.315 0.198 0.424 1.641 1.867 2.065 2.065 0.062 0.027 0.205 0.109 0.315 0.178 0.54 0.349 1.463 0.725 2.017 0.834 0.171 0.027 0.417 0.089 0.547 0.123 0.13 0.041 0.684 0.075 1.231 0.075s1.101-0.034 1.231-0.075c0.13-0.034 0.376-0.096 0.547-0.123 0.554-0.109 1.477-0.485 2.017-0.834 0.116-0.068 0.253-0.15 0.321-0.178 0.424-0.198 1.86-1.634 2.058-2.058 0.027-0.068 0.109-0.212 0.178-0.321 0.349-0.54 0.725-1.463 0.834-2.017 0.027-0.171 0.089-0.417 0.123-0.547 0.096-0.308 0.096-2.154 0-2.462-0.034-0.13-0.096-0.376-0.123-0.547-0.109-0.554-0.485-1.477-0.834-2.017-0.068-0.116-0.15-0.253-0.178-0.321-0.198-0.424-1.634-1.86-2.058-2.058-0.068-0.027-0.205-0.109-0.321-0.178-0.54-0.349-1.463-0.725-2.017-0.834-0.171-0.027-0.417-0.089-0.547-0.123-0.294-0.089-2.215-0.089-2.496 0z"></path>
</svg>
