<!-- Generated by IcoMoon.io -->
<svg version="1.1" xmlns="http://www.w3.org/2000/svg" width="32" height="32" viewBox="0 0 32 32">
<title>cloud</title>
<path d="M16.318 1.667c-0.177 0.049-0.396 0.099-0.48 0.099-0.092 0-0.268 0.042-0.389 0.099-0.127 0.056-0.29 0.113-0.367 0.134-0.304 0.085-0.678 0.24-0.756 0.318-0.049 0.049-0.141 0.085-0.205 0.085-0.071 0-0.148 0.035-0.17 0.078-0.028 0.035-0.12 0.099-0.198 0.141-0.516 0.219-1.455 1.003-2.176 1.801-0.233 0.268-0.841 1.18-0.841 1.272 0 0.042-0.064 0.134-0.141 0.205-0.134 0.12-0.155 0.12-0.374 0.021-0.65-0.311-1.745-0.424-2.275-0.233-0.155 0.056-0.339 0.106-0.41 0.106-0.078 0-0.219 0.042-0.318 0.099-0.106 0.056-0.24 0.12-0.297 0.148-0.551 0.226-1.406 1.017-1.738 1.618-0.198 0.353-0.367 0.742-0.487 1.102-0.106 0.339-0.162 0.403-0.417 0.516-0.155 0.071-0.339 0.162-0.396 0.198s-0.177 0.092-0.261 0.134c-0.247 0.106-1.024 0.643-1.321 0.918-0.791 0.728-1.582 2.112-1.745 3.073-0.212 1.236-0.212 1.286 0 2.543 0.113 0.692 0.445 1.476 0.932 2.225 0.509 0.777 1.611 1.709 2.465 2.098 0.763 0.339 0.862 0.374 0.996 0.374 0.078 0 0.29 0.049 0.473 0.106 0.283 0.092 0.869 0.106 3.935 0.092l3.603-0.021 0.021-0.487c0.014-0.346-0.007-0.509-0.071-0.544-0.049-0.035-1.533-0.064-3.285-0.064-3.186 0-3.963-0.042-4.457-0.254-0.127-0.056-0.29-0.099-0.36-0.099s-0.17-0.049-0.219-0.106c-0.049-0.056-0.127-0.106-0.184-0.106-0.283 0-1.71-1.229-1.971-1.695-0.254-0.459-0.586-1.194-0.671-1.483-0.049-0.177-0.106-0.713-0.12-1.201-0.028-0.89 0.042-1.349 0.304-1.943 0.049-0.12 0.106-0.261 0.134-0.318 0.205-0.516 0.869-1.286 1.547-1.801 0.268-0.205 1.159-0.671 1.279-0.671 0.049 0 0.233-0.064 0.417-0.141 0.24-0.113 0.325-0.191 0.325-0.297 0-0.085 0.049-0.325 0.113-0.544 0.389-1.356 1.272-2.232 2.487-2.479 0.36-0.071 0.544-0.071 0.989 0 0.297 0.049 0.607 0.134 0.685 0.191 0.078 0.049 0.191 0.092 0.254 0.092s0.155 0.049 0.205 0.106c0.049 0.056 0.141 0.106 0.212 0.106s0.162 0.049 0.212 0.106c0.17 0.205 0.275 0.099 0.636-0.636 0.586-1.201 1.173-1.928 2.119-2.642 0.699-0.516 0.812-0.586 1.66-0.954 0.509-0.226 1.971-0.537 2.501-0.537 0.396 0 1.724 0.219 1.971 0.325 0.127 0.057 0.283 0.099 0.339 0.099s0.417 0.148 0.791 0.332c1.717 0.826 2.974 2.232 3.532 3.942 0.24 0.756 0.318 1.25 0.36 2.366l0.042 1.095 1.017 0.056c0.65 0.035 1.088 0.092 1.215 0.155 0.106 0.056 0.24 0.106 0.29 0.106s0.297 0.106 0.551 0.226c0.487 0.247 1.618 1.286 1.759 1.611 0.042 0.099 0.106 0.226 0.141 0.283 0.099 0.17 0.261 0.572 0.389 0.961 0.155 0.494 0.155 1.815 0 2.352-0.247 0.855-0.869 1.815-1.455 2.275-0.17 0.134-0.318 0.254-0.339 0.276-0.021 0.028-0.085 0.071-0.141 0.092-0.056 0.028-0.212 0.113-0.346 0.198-0.339 0.205-0.749 0.339-1.349 0.452-0.41 0.078-1.321 0.106-4.062 0.106-2.656 0-3.56 0.021-3.624 0.085-0.085 0.085-0.12 0.735-0.042 0.932 0.042 0.099 0.452 0.113 3.977 0.113 3.235-0.007 3.977-0.021 4.21-0.106 0.155-0.056 0.346-0.106 0.424-0.106 0.177 0 1.427-0.629 1.695-0.855 0.897-0.742 1.356-1.286 1.745-2.077 0.452-0.911 0.579-1.469 0.579-2.543 0-1.632-0.502-2.868-1.632-4.012-0.579-0.586-1.526-1.18-2.098-1.328-0.12-0.028-0.311-0.085-0.431-0.127-0.113-0.042-0.424-0.092-0.685-0.12-0.254-0.021-0.516-0.078-0.572-0.12-0.078-0.064-0.127-0.332-0.177-0.932-0.099-1.095-0.346-2.006-0.728-2.649-0.035-0.056-0.099-0.184-0.134-0.276-0.155-0.353-0.749-1.187-1.201-1.66-1.053-1.123-2.811-2.162-4.026-2.373-0.177-0.035-0.445-0.092-0.6-0.134-0.424-0.113-2.402-0.092-2.79 0.035z"></path>
<path d="M15.378 11.769c-0.028 0.028-0.049 3.737-0.049 8.244s-0.014 8.208-0.028 8.23c-0.021 0.014-0.834-0.742-1.808-1.688-0.982-0.947-1.823-1.738-1.886-1.745-0.106-0.028-0.607 0.41-0.728 0.629-0.049 0.092 0.325 0.502 1.815 1.978 2.939 2.91 3.207 3.172 3.249 3.172 0.021 0 0.932-0.883 2.027-1.964 1.088-1.081 2.232-2.197 2.536-2.487 0.297-0.283 0.544-0.558 0.544-0.608 0-0.12-0.65-0.735-0.777-0.735-0.064 0-0.41 0.304-0.777 0.678s-1.18 1.159-1.801 1.745l-1.13 1.074-0.071-16.53-0.53-0.021c-0.297-0.007-0.558 0-0.586 0.028z"></path>
</svg>
