<!-- Generated by IcoMoon.io -->
<svg version="1.1" xmlns="http://www.w3.org/2000/svg" width="32" height="32" viewBox="0 0 32 32">
<title>lab</title>
<path d="M10.286 0.571c0 0.505 0.067 0.571 0.571 0.571h0.571v9.019l-4.105 6.905c-4.867 8.21-4.914 8.314-4.924 10.076-0.019 2.41 1.038 4 3.038 4.581 1.819 0.533 20.867 0.324 21.914-0.238 1.657-0.886 2.514-2.733 2.276-4.886-0.181-1.61-0.143-1.533-4.848-9.41l-4.21-7.057v-8.99h0.571c0.505 0 0.571-0.067 0.571-0.571 0-0.571 0-0.571-1.143-0.571h-1.143v10.571l4.381 7.305c5.095 8.505 5.305 9.019 4.4 11-0.905 2-1.010 2.010-12.6 1.943l-9.829-0.057-0.705-0.476c-1.029-0.695-1.733-2.21-1.59-3.429 0.143-1.171 0.105-1.105 4-7.667l3.248-5.476h4.124v-1.143h-3.448l0.495-0.81c0.276-0.448 0.552-0.962 0.61-1.143 0.086-0.286 0.352-0.333 1.79-0.333h1.695v-1.143h-3.429v-2.286h1.143c1.143 0 1.143 0 1.143-0.571s0-0.571-1.143-0.571h-1.143v-2.286h3.429v-1.143h-3.429v-2.286h-1.143c-1.143 0-1.143 0-1.143 0.571z"></path>
<path d="M7.79 20.505c-3.39 5.638-3.733 6.733-2.6 8.181 0.8 1.019 0.905 1.029 10.752 1.029 10.229-0.010 10.324-0.019 11.029-1.362 0.876-1.648 0.686-2.171-2.914-8.114l-2.562-4.238h-11l-2.705 4.505zM23.4 21.39c4.495 7.467 4.762 7.219-7.771 7.143-10.333-0.067-9.829 0.029-9.686-1.781 0.067-0.829 3.819-7.648 5.162-9.371 0.133-0.181 1.352-0.238 4.962-0.229l4.79 0.010 2.543 4.229z"></path>
</svg>
