<!-- Generated by IcoMoon.io -->
<svg version="1.1" xmlns="http://www.w3.org/2000/svg" width="32" height="32" viewBox="0 0 32 32">
<title>lamp</title>
<path d="M14.702 0.646c-0.267 0.035-0.618 0.091-0.772 0.133s-0.407 0.098-0.561 0.133c-0.33 0.063-0.695 0.189-0.968 0.323-0.112 0.056-0.232 0.098-0.26 0.098-0.084 0-1.032 0.463-1.298 0.632-0.112 0.077-0.26 0.161-0.316 0.189-0.239 0.105-1.207 0.884-1.656 1.333-0.428 0.414-1.361 1.558-1.361 1.663 0 0.021-0.091 0.168-0.197 0.337-0.218 0.33-0.575 1.060-0.737 1.495-0.239 0.667-0.274 0.786-0.33 1.088-0.035 0.175-0.098 0.407-0.14 0.526-0.056 0.14-0.091 0.695-0.091 1.614 0 1.411 0.021 1.593 0.316 2.456 0.035 0.112 0.091 0.302 0.119 0.421 0.056 0.211 0.379 0.961 0.505 1.158 0.035 0.056 0.084 0.154 0.105 0.211 0.084 0.218 0.105 0.253 0.239 0.456 0.077 0.112 0.161 0.26 0.189 0.316 0.063 0.133 0.884 1.354 1.074 1.6 1.719 2.218 2.533 3.832 2.737 5.432 0.035 0.267 0.084 0.512 0.112 0.561 0.028 0.042 0.070 0.526 0.091 1.067l0.042 0.989 8.807 0.035v-0.786c0-0.73 0.112-1.642 0.288-2.337 0.042-0.154 0.098-0.393 0.133-0.526 0.077-0.316 0.246-0.779 0.449-1.221 0.091-0.197 0.182-0.407 0.211-0.463 0.021-0.056 0.105-0.203 0.182-0.316 0.077-0.119 0.168-0.274 0.211-0.351 0.112-0.218 0.218-0.379 0.639-0.947 0.211-0.288 0.456-0.639 0.54-0.779s0.225-0.33 0.309-0.421c0.211-0.225 0.87-1.172 1.039-1.502 0.042-0.077 0.133-0.239 0.211-0.351 0.077-0.119 0.154-0.26 0.182-0.316 0.021-0.056 0.070-0.154 0.105-0.211s0.084-0.154 0.105-0.211c0.028-0.056 0.126-0.281 0.225-0.491s0.203-0.484 0.232-0.597c0.028-0.119 0.084-0.309 0.119-0.421 0.295-0.856 0.316-1.053 0.316-2.421 0-0.891-0.028-1.467-0.084-1.649-0.049-0.154-0.112-0.407-0.147-0.561-0.049-0.267-0.091-0.393-0.33-1.053-0.161-0.435-0.519-1.165-0.737-1.495-0.105-0.168-0.197-0.316-0.197-0.337 0-0.098-0.912-1.214-1.333-1.642-0.449-0.442-1.439-1.242-1.684-1.354-0.056-0.028-0.197-0.112-0.316-0.189-0.267-0.168-1.214-0.632-1.298-0.632-0.028 0-0.147-0.042-0.26-0.098-0.274-0.133-0.639-0.26-0.968-0.323-0.154-0.035-0.407-0.091-0.561-0.133-0.814-0.204-2.204-0.26-3.228-0.133zM17.579 1.867c0.274 0.063 0.589 0.14 0.702 0.182 0.119 0.035 0.309 0.098 0.421 0.126 0.379 0.105 0.737 0.253 0.821 0.337 0.049 0.049 0.14 0.084 0.203 0.084s0.154 0.049 0.203 0.105c0.049 0.056 0.126 0.105 0.175 0.105 0.042 0 0.211 0.091 0.358 0.196 0.154 0.112 0.309 0.218 0.358 0.232 0.133 0.049 0.737 0.568 1.214 1.046 0.54 0.54 0.926 1.003 1.221 1.467 0.119 0.182 0.253 0.393 0.302 0.47 0.126 0.197 0.54 1.067 0.667 1.397 0.302 0.779 0.547 1.993 0.547 2.702 0 0.66-0.295 2.063-0.533 2.547-0.056 0.112-0.098 0.26-0.098 0.33 0 0.063-0.049 0.161-0.105 0.211s-0.105 0.126-0.105 0.175c0 0.042-0.077 0.225-0.175 0.393s-0.197 0.358-0.225 0.414c-0.084 0.182-0.898 1.361-1.060 1.537-0.056 0.056-0.175 0.232-0.274 0.386-0.105 0.161-0.365 0.526-0.582 0.814s-0.421 0.575-0.449 0.632c-0.056 0.119-0.147 0.267-0.414 0.681-0.098 0.161-0.288 0.491-0.407 0.737s-0.26 0.533-0.316 0.639c-0.056 0.112-0.098 0.253-0.098 0.323 0 0.063-0.035 0.154-0.077 0.197s-0.105 0.203-0.133 0.351c-0.035 0.147-0.091 0.358-0.126 0.477-0.147 0.428-0.288 1.207-0.33 1.818-0.021 0.344-0.070 0.667-0.112 0.723-0.049 0.056-0.232 0.091-0.456 0.091-0.302 0-0.386-0.028-0.449-0.14-0.049-0.098-0.070-1.326-0.056-3.951l0.021-3.803 0.295-0.526c0.168-0.288 0.316-0.575 0.337-0.632 0.028-0.056 0.070-0.154 0.105-0.211 0.182-0.316 0.561-1.109 0.561-1.172 0-0.042 0.049-0.112 0.105-0.161s0.105-0.14 0.105-0.211c0-0.070 0.049-0.161 0.105-0.211s0.105-0.14 0.105-0.211c0-0.070 0.049-0.161 0.105-0.211s0.105-0.133 0.105-0.197c0-0.056 0.049-0.161 0.112-0.232 0.182-0.204 0.056-0.274-0.526-0.274h-0.547l-0.351 0.716c-0.197 0.4-0.372 0.772-0.4 0.828-0.021 0.056-0.070 0.154-0.105 0.211s-0.084 0.154-0.105 0.211c-0.021 0.056-0.070 0.154-0.105 0.211s-0.084 0.154-0.105 0.211c-0.021 0.056-0.070 0.154-0.105 0.211s-0.253 0.47-0.477 0.912l-0.407 0.807-0.070 7.789h-2.035l-0.070-7.789-0.393-0.772c-0.218-0.428-0.414-0.821-0.442-0.877-0.021-0.056-0.070-0.154-0.105-0.211s-0.084-0.154-0.105-0.211c-0.021-0.056-0.070-0.154-0.105-0.211s-0.084-0.154-0.105-0.211c-0.021-0.056-0.070-0.154-0.105-0.211s-0.232-0.442-0.435-0.863l-0.365-0.751h-0.547c-0.547 0-0.702 0.063-0.561 0.239 0.049 0.056 0.533 0.975 1.081 2.049l0.996 1.958 0.021 3.789c0.007 2.084 0 3.86-0.021 3.951-0.035 0.14-0.084 0.154-0.449 0.154-0.274 0-0.442-0.035-0.498-0.098-0.042-0.056-0.105-0.428-0.133-0.828-0.035-0.4-0.091-0.814-0.14-0.919-0.042-0.112-0.077-0.302-0.077-0.421-0.007-0.126-0.049-0.302-0.105-0.4s-0.098-0.246-0.105-0.33c0-0.14-0.042-0.26-0.316-0.898-0.119-0.281-0.604-1.263-0.723-1.46-0.288-0.491-1.333-2-1.621-2.344-0.042-0.042-0.239-0.323-0.442-0.618-1.102-1.6-1.537-2.568-1.839-4.14-0.182-0.926-0.112-1.909 0.211-3.053 0.182-0.625 0.618-1.635 0.891-2.063 0.049-0.077 0.182-0.288 0.302-0.47 0.295-0.463 0.681-0.926 1.221-1.467 0.477-0.477 1.081-0.997 1.214-1.046 0.049-0.014 0.204-0.119 0.358-0.232 0.147-0.105 0.316-0.196 0.358-0.196 0.049 0 0.126-0.049 0.175-0.105s0.14-0.105 0.204-0.105c0.063 0 0.154-0.035 0.204-0.084 0.084-0.084 0.442-0.232 0.821-0.337 0.119-0.028 0.309-0.091 0.421-0.126 0.639-0.218 1.116-0.274 2.281-0.288 0.905-0.007 1.361 0.021 1.719 0.105z"></path>
<path d="M12.646 26.049c-0.091 0.091-0.112 0.884-0.028 1.025 0.049 0.070 0.765 0.084 3.354 0.070l3.291-0.021v-1.123l-3.263-0.021c-2.484-0.014-3.291 0.007-3.354 0.070z"></path>
<path d="M12.639 28.309c-0.049 0.063-0.077 0.281-0.063 0.547l0.021 0.442h6.667l0.021-0.484c0.014-0.344-0.007-0.505-0.070-0.54-0.049-0.035-1.53-0.063-3.291-0.063-2.674 0-3.214 0.014-3.284 0.098z"></path>
<path d="M13.768 30.47c-0.091 0.091-0.112 0.884-0.028 1.025 0.049 0.063 0.54 0.084 2.232 0.070l2.168-0.021 0.021-0.519c0.014-0.372-0.007-0.54-0.070-0.575-0.154-0.098-4.225-0.077-4.323 0.021z"></path>
</svg>
