<!-- Generated by IcoMoon.io -->
<svg version="1.1" xmlns="http://www.w3.org/2000/svg" width="32" height="32" viewBox="0 0 32 32">
<title>pixel</title>
<path d="M9.975 0.383c-0.033 0.033-0.058 0.75-0.058 1.592v1.525l0.217 0.083c0.275 0.108 0.792 0.108 1.075 0l0.208-0.083-0.017-1.558-0.025-1.567-0.667-0.025c-0.375-0.008-0.7 0-0.733 0.033z"></path>
<path d="M3.567 3.258c-0.225 0.233-0.4 0.442-0.4 0.475 0 0.1 2.2 2.267 2.3 2.267 0.117 0 0.867-0.742 0.867-0.858s-2.183-2.308-2.292-2.3c-0.042 0.008-0.258 0.192-0.475 0.417z"></path>
<path d="M16.1 3.942c-0.608 0.617-1.1 1.15-1.1 1.2 0 0.117 0.75 0.858 0.867 0.858 0.108 0 2.3-2.175 2.3-2.275 0-0.083-0.825-0.892-0.908-0.892-0.033 0-0.55 0.5-1.158 1.108z"></path>
<path d="M9.225 8.733c-0.717 0.717-1.308 1.35-1.308 1.408 0 0.142 20.825 20.942 20.975 20.942 0.125 0 2.775-2.592 2.775-2.717 0-0.133-20.875-20.95-21-20.95-0.067 0-0.717 0.592-1.442 1.317zM21.608 20.183c4.433 4.425 8.058 8.108 8.058 8.175 0 0.117-0.692 0.808-0.808 0.808-0.042 0-3.758-3.692-8.275-8.208l-8.208-8.208 0.45-0.417c0.383-0.358 0.467-0.4 0.583-0.317 0.075 0.058 3.758 3.733 8.2 8.167z"></path>
<path d="M0.225 9.558c-0.033 0.025-0.058 0.325-0.058 0.667v0.608l1.65-0.017 1.642-0.025 0.008-0.542c0.008-0.3-0.025-0.592-0.075-0.65-0.058-0.075-0.483-0.1-1.6-0.1-0.833 0-1.542 0.025-1.567 0.058z"></path>
<path d="M17.975 9.55c-0.033 0.033-0.058 0.333-0.058 0.675v0.608h3.258l-0.025-0.65-0.025-0.642-1.55-0.025c-0.85-0.008-1.567 0.008-1.6 0.033z"></path>
<path d="M4.275 15.767c-0.608 0.608-1.108 1.142-1.108 1.192 0 0.133 0.8 0.9 0.908 0.867 0.15-0.058 2.258-2.183 2.258-2.283 0-0.108-0.767-0.875-0.875-0.875-0.033 0-0.567 0.492-1.183 1.1z"></path>
<path d="M9.958 17.183c-0.025 0.067-0.033 0.792-0.025 1.608l0.025 1.5h1.417v-3.167l-0.692-0.025c-0.508-0.017-0.7 0.008-0.725 0.083z"></path>
</svg>
