<svg aria-hidden="true" style="position: absolute; width: 0; height: 0; overflow: hidden;" version="1.1" xmlns="http://www.w3.org/2000/svg" xmlns:xlink="http://www.w3.org/1999/xlink">
<defs>
<symbol id="icon-circle" viewBox="0 0 32 32">
<title>circle</title>
<path d="M13.901 0.082c0.021 0.096-0.239 0.178-0.629 0.185-0.164 0.007-0.458 0.048-0.65 0.103-0.362 0.103-0.793 0.212-1.203 0.315-0.315 0.075-0.67 0.198-0.909 0.315-0.109 0.055-0.239 0.096-0.287 0.096s-0.178 0.041-0.287 0.096c-0.103 0.048-0.315 0.144-0.465 0.212-0.15 0.062-0.321 0.144-0.376 0.178s-0.15 0.082-0.205 0.103c-0.055 0.020-0.15 0.062-0.205 0.096s-0.253 0.144-0.444 0.239c-0.185 0.096-0.431 0.232-0.547 0.308-0.109 0.075-0.267 0.164-0.342 0.205-0.547 0.28-1.901 1.381-2.742 2.215-0.834 0.841-1.935 2.195-2.215 2.742-0.041 0.075-0.13 0.226-0.205 0.342-0.075 0.109-0.212 0.356-0.308 0.547-0.096 0.185-0.205 0.39-0.239 0.444s-0.075 0.15-0.096 0.205c-0.020 0.055-0.068 0.15-0.103 0.205s-0.116 0.226-0.178 0.376c-0.068 0.15-0.164 0.362-0.212 0.465-0.055 0.109-0.096 0.246-0.096 0.315 0 0.062-0.034 0.15-0.075 0.191s-0.096 0.178-0.13 0.301c-0.027 0.13-0.089 0.321-0.123 0.438-0.075 0.219-0.226 0.745-0.356 1.265-0.185 0.745-0.232 1.491-0.232 3.487s0.048 2.742 0.232 3.487c0.13 0.52 0.28 1.046 0.356 1.265 0.034 0.109 0.096 0.308 0.123 0.438 0.034 0.123 0.089 0.26 0.13 0.301s0.075 0.13 0.075 0.191c0 0.068 0.041 0.205 0.096 0.315 0.048 0.103 0.144 0.315 0.212 0.465 0.062 0.15 0.144 0.321 0.178 0.376s0.082 0.15 0.103 0.205c0.020 0.055 0.068 0.15 0.103 0.205s0.082 0.15 0.103 0.205c0.020 0.055 0.068 0.15 0.103 0.205s0.096 0.164 0.13 0.239c0.041 0.075 0.13 0.226 0.205 0.342 0.075 0.109 0.164 0.267 0.205 0.342 0.28 0.547 1.381 1.901 2.215 2.742 0.841 0.834 2.195 1.935 2.742 2.215 0.075 0.041 0.232 0.13 0.342 0.205 0.116 0.075 0.267 0.164 0.342 0.205 0.075 0.034 0.198 0.103 0.274 0.15 0.28 0.157 0.342 0.191 0.444 0.232 0.055 0.020 0.15 0.068 0.205 0.103s0.15 0.082 0.205 0.103c0.178 0.068 0.574 0.246 0.773 0.342 0.109 0.055 0.246 0.096 0.315 0.096 0.062 0 0.15 0.034 0.191 0.075s0.178 0.096 0.301 0.13c0.13 0.027 0.328 0.089 0.438 0.123 0.219 0.075 0.745 0.226 1.265 0.356 0.745 0.185 1.491 0.232 3.487 0.232s2.742-0.048 3.487-0.232c0.52-0.13 1.046-0.28 1.265-0.356 0.116-0.034 0.308-0.096 0.438-0.123 0.123-0.034 0.26-0.089 0.301-0.13s0.13-0.075 0.191-0.075c0.068 0 0.205-0.041 0.315-0.096 0.103-0.048 0.315-0.144 0.465-0.212 0.15-0.062 0.321-0.144 0.376-0.178s0.15-0.082 0.205-0.103c0.055-0.020 0.15-0.062 0.205-0.096s0.26-0.144 0.444-0.239c0.191-0.096 0.438-0.232 0.547-0.308 0.116-0.075 0.267-0.164 0.342-0.205 0.171-0.089 0.909-0.615 1.477-1.060 0.622-0.485 1.894-1.744 2.325-2.304 0.54-0.691 1.080-1.436 1.156-1.593 0.041-0.075 0.13-0.232 0.205-0.342 0.075-0.116 0.212-0.362 0.308-0.547 0.185-0.356 0.26-0.506 0.376-0.704 0.041-0.062 0.089-0.164 0.109-0.219 0.068-0.178 0.246-0.574 0.342-0.773 0.055-0.109 0.096-0.239 0.096-0.287s0.041-0.178 0.096-0.287c0.116-0.239 0.239-0.595 0.315-0.909 0.103-0.41 0.212-0.841 0.315-1.203 0.055-0.191 0.096-0.485 0.103-0.65 0.007-0.39 0.089-0.65 0.185-0.629 0.062 0.014 0.082-0.506 0.082-2.031 0-1.696-0.014-2.051-0.096-2.051-0.103 0-0.178-0.287-0.178-0.67 0-0.13-0.041-0.397-0.096-0.588-0.103-0.362-0.212-0.793-0.315-1.203-0.075-0.315-0.198-0.67-0.315-0.909-0.055-0.109-0.096-0.239-0.096-0.287s-0.041-0.178-0.096-0.287c-0.048-0.103-0.144-0.315-0.212-0.465-0.062-0.15-0.144-0.321-0.178-0.376s-0.075-0.144-0.096-0.191c-0.082-0.205-0.116-0.274-0.342-0.663-0.13-0.226-0.267-0.472-0.308-0.547-0.082-0.164-0.212-0.362-0.568-0.889-0.246-0.356-0.26-0.397-0.157-0.506 0.062-0.068 0.109-0.171 0.109-0.226 0-0.062 0.048-0.198 0.103-0.301 0.205-0.397 0.062-1.6-0.232-1.894-0.041-0.041-0.075-0.109-0.075-0.15 0-0.096-0.629-0.718-0.725-0.718-0.034 0-0.103-0.034-0.144-0.075-0.294-0.294-1.497-0.438-1.894-0.232-0.103 0.055-0.239 0.103-0.301 0.103-0.055 0-0.157 0.048-0.226 0.109-0.109 0.103-0.15 0.089-0.506-0.157-0.526-0.356-0.725-0.485-0.889-0.568-0.075-0.041-0.321-0.178-0.547-0.308s-0.458-0.253-0.513-0.28c-0.055-0.020-0.15-0.068-0.205-0.103s-0.15-0.082-0.205-0.103c-0.178-0.068-0.574-0.246-0.773-0.342-0.109-0.055-0.239-0.096-0.287-0.096s-0.178-0.041-0.287-0.096c-0.239-0.116-0.595-0.239-0.909-0.315-0.41-0.103-0.841-0.212-1.203-0.315-0.191-0.055-0.458-0.096-0.588-0.096-0.383 0-0.67-0.075-0.67-0.178 0-0.082-0.356-0.096-2.051-0.096-1.525 0-2.044 0.021-2.031 0.082zM17.538 1.409c0.451 0.055 0.957 0.137 1.128 0.178s0.444 0.096 0.615 0.13c0.424 0.068 0.882 0.198 1.149 0.308 0.123 0.055 0.273 0.096 0.342 0.096 0.062 0 0.178 0.048 0.246 0.103 0.075 0.055 0.185 0.103 0.239 0.103 0.137 0 1.244 0.526 1.956 0.923 0.226 0.13 0.458 0.253 0.513 0.28s0.212 0.137 0.349 0.246c0.137 0.103 0.28 0.191 0.321 0.191 0.123 0 0.15 0.212 0.048 0.41-0.164 0.315-0.137 1.409 0.041 1.785 0.356 0.752 0.602 0.998 1.354 1.354 0.376 0.178 1.47 0.205 1.785 0.041 0.198-0.103 0.41-0.075 0.41 0.048 0 0.041 0.082 0.185 0.191 0.321 0.103 0.137 0.246 0.356 0.321 0.485 0.472 0.848 0.54 0.985 0.916 1.798 0.116 0.253 0.212 0.499 0.212 0.547s0.041 0.144 0.096 0.219c0.048 0.075 0.109 0.212 0.13 0.308s0.068 0.26 0.103 0.376c0.39 1.149 0.697 3.097 0.697 4.41 0 0.773-0.144 2.133-0.287 2.735-0.041 0.171-0.096 0.444-0.13 0.615-0.068 0.424-0.198 0.882-0.308 1.149-0.055 0.123-0.096 0.273-0.096 0.342 0 0.062-0.048 0.178-0.103 0.246-0.055 0.075-0.103 0.178-0.103 0.226 0 0.13-0.65 1.525-0.985 2.099-0.779 1.361-2.373 3.193-3.597 4.144-0.451 0.349-1.497 1.067-1.744 1.203-0.827 0.444-1.976 0.985-2.106 0.985-0.048 0-0.15 0.048-0.226 0.103-0.068 0.055-0.185 0.103-0.246 0.103-0.068 0-0.219 0.041-0.342 0.096-0.267 0.109-0.725 0.239-1.149 0.308-0.171 0.034-0.444 0.089-0.615 0.13-0.602 0.144-1.962 0.287-2.735 0.287s-2.133-0.144-2.735-0.287c-0.171-0.041-0.444-0.096-0.615-0.13-0.424-0.068-0.882-0.198-1.149-0.308-0.123-0.055-0.274-0.096-0.342-0.096-0.062 0-0.178-0.048-0.246-0.103-0.075-0.055-0.178-0.103-0.226-0.103-0.13 0-1.279-0.54-2.106-0.985-0.246-0.137-1.292-0.855-1.744-1.203-1.224-0.95-2.817-2.783-3.597-4.144-0.335-0.574-0.985-1.969-0.985-2.099 0-0.048-0.048-0.15-0.103-0.226-0.055-0.068-0.103-0.185-0.103-0.246 0-0.068-0.041-0.219-0.096-0.342-0.109-0.267-0.239-0.725-0.308-1.149-0.034-0.171-0.089-0.444-0.13-0.615-0.144-0.602-0.287-1.962-0.287-2.735s0.144-2.133 0.287-2.735c0.041-0.171 0.096-0.444 0.13-0.615 0.068-0.424 0.198-0.882 0.308-1.149 0.055-0.123 0.096-0.274 0.096-0.342 0-0.062 0.048-0.178 0.103-0.246 0.055-0.075 0.103-0.178 0.103-0.226 0-0.13 0.54-1.279 0.985-2.106 0.137-0.246 0.855-1.292 1.203-1.744 0.492-0.629 1.716-1.86 2.352-2.352 1.224-0.95 2.209-1.538 3.357-2.010 0.301-0.13 0.636-0.273 0.738-0.328 0.109-0.055 0.239-0.096 0.287-0.096 0.055 0 0.198-0.041 0.321-0.096 0.267-0.109 0.725-0.239 1.149-0.308 0.171-0.034 0.444-0.089 0.615-0.13 1.128-0.274 3.015-0.356 4.342-0.178z"></path>
<path d="M14.667 8.759c-0.109 0.041-0.342 0.096-0.513 0.123-0.561 0.109-1.484 0.485-2.017 0.834-0.109 0.068-0.253 0.15-0.315 0.178-0.424 0.198-1.867 1.641-2.065 2.065-0.027 0.062-0.109 0.198-0.178 0.315-0.349 0.54-0.725 1.463-0.834 2.017-0.027 0.171-0.089 0.417-0.123 0.547-0.096 0.308-0.096 2.154 0 2.462 0.034 0.13 0.096 0.376 0.123 0.547 0.109 0.554 0.485 1.477 0.834 2.017 0.068 0.109 0.15 0.253 0.178 0.315 0.198 0.424 1.641 1.867 2.065 2.065 0.062 0.027 0.205 0.109 0.315 0.178 0.54 0.349 1.463 0.725 2.017 0.834 0.171 0.027 0.417 0.089 0.547 0.123 0.13 0.041 0.684 0.075 1.231 0.075s1.101-0.034 1.231-0.075c0.13-0.034 0.376-0.096 0.547-0.123 0.554-0.109 1.477-0.485 2.017-0.834 0.116-0.068 0.253-0.15 0.321-0.178 0.424-0.198 1.86-1.634 2.058-2.058 0.027-0.068 0.109-0.212 0.178-0.321 0.349-0.54 0.725-1.463 0.834-2.017 0.027-0.171 0.089-0.417 0.123-0.547 0.096-0.308 0.096-2.154 0-2.462-0.034-0.13-0.096-0.376-0.123-0.547-0.109-0.554-0.485-1.477-0.834-2.017-0.068-0.116-0.15-0.253-0.178-0.321-0.198-0.424-1.634-1.86-2.058-2.058-0.068-0.027-0.205-0.109-0.321-0.178-0.54-0.349-1.463-0.725-2.017-0.834-0.171-0.027-0.417-0.089-0.547-0.123-0.294-0.089-2.215-0.089-2.496 0z"></path>
</symbol>
<symbol id="icon-cloud" viewBox="0 0 32 32">
<title>cloud</title>
<path d="M16.318 1.667c-0.177 0.049-0.396 0.099-0.48 0.099-0.092 0-0.268 0.042-0.389 0.099-0.127 0.056-0.29 0.113-0.367 0.134-0.304 0.085-0.678 0.24-0.756 0.318-0.049 0.049-0.141 0.085-0.205 0.085-0.071 0-0.148 0.035-0.17 0.078-0.028 0.035-0.12 0.099-0.198 0.141-0.516 0.219-1.455 1.003-2.176 1.801-0.233 0.268-0.841 1.18-0.841 1.272 0 0.042-0.064 0.134-0.141 0.205-0.134 0.12-0.155 0.12-0.374 0.021-0.65-0.311-1.745-0.424-2.275-0.233-0.155 0.056-0.339 0.106-0.41 0.106-0.078 0-0.219 0.042-0.318 0.099-0.106 0.056-0.24 0.12-0.297 0.148-0.551 0.226-1.406 1.017-1.738 1.618-0.198 0.353-0.367 0.742-0.487 1.102-0.106 0.339-0.162 0.403-0.417 0.516-0.155 0.071-0.339 0.162-0.396 0.198s-0.177 0.092-0.261 0.134c-0.247 0.106-1.024 0.643-1.321 0.918-0.791 0.728-1.582 2.112-1.745 3.073-0.212 1.236-0.212 1.286 0 2.543 0.113 0.692 0.445 1.476 0.932 2.225 0.509 0.777 1.611 1.709 2.465 2.098 0.763 0.339 0.862 0.374 0.996 0.374 0.078 0 0.29 0.049 0.473 0.106 0.283 0.092 0.869 0.106 3.935 0.092l3.603-0.021 0.021-0.487c0.014-0.346-0.007-0.509-0.071-0.544-0.049-0.035-1.533-0.064-3.285-0.064-3.186 0-3.963-0.042-4.457-0.254-0.127-0.056-0.29-0.099-0.36-0.099s-0.17-0.049-0.219-0.106c-0.049-0.056-0.127-0.106-0.184-0.106-0.283 0-1.71-1.229-1.971-1.695-0.254-0.459-0.586-1.194-0.671-1.483-0.049-0.177-0.106-0.713-0.12-1.201-0.028-0.89 0.042-1.349 0.304-1.943 0.049-0.12 0.106-0.261 0.134-0.318 0.205-0.516 0.869-1.286 1.547-1.801 0.268-0.205 1.159-0.671 1.279-0.671 0.049 0 0.233-0.064 0.417-0.141 0.24-0.113 0.325-0.191 0.325-0.297 0-0.085 0.049-0.325 0.113-0.544 0.389-1.356 1.272-2.232 2.487-2.479 0.36-0.071 0.544-0.071 0.989 0 0.297 0.049 0.607 0.134 0.685 0.191 0.078 0.049 0.191 0.092 0.254 0.092s0.155 0.049 0.205 0.106c0.049 0.056 0.141 0.106 0.212 0.106s0.162 0.049 0.212 0.106c0.17 0.205 0.275 0.099 0.636-0.636 0.586-1.201 1.173-1.928 2.119-2.642 0.699-0.516 0.812-0.586 1.66-0.954 0.509-0.226 1.971-0.537 2.501-0.537 0.396 0 1.724 0.219 1.971 0.325 0.127 0.057 0.283 0.099 0.339 0.099s0.417 0.148 0.791 0.332c1.717 0.826 2.974 2.232 3.532 3.942 0.24 0.756 0.318 1.25 0.36 2.366l0.042 1.095 1.017 0.056c0.65 0.035 1.088 0.092 1.215 0.155 0.106 0.056 0.24 0.106 0.29 0.106s0.297 0.106 0.551 0.226c0.487 0.247 1.618 1.286 1.759 1.611 0.042 0.099 0.106 0.226 0.141 0.283 0.099 0.17 0.261 0.572 0.389 0.961 0.155 0.494 0.155 1.815 0 2.352-0.247 0.855-0.869 1.815-1.455 2.275-0.17 0.134-0.318 0.254-0.339 0.276-0.021 0.028-0.085 0.071-0.141 0.092-0.056 0.028-0.212 0.113-0.346 0.198-0.339 0.205-0.749 0.339-1.349 0.452-0.41 0.078-1.321 0.106-4.062 0.106-2.656 0-3.56 0.021-3.624 0.085-0.085 0.085-0.12 0.735-0.042 0.932 0.042 0.099 0.452 0.113 3.977 0.113 3.235-0.007 3.977-0.021 4.21-0.106 0.155-0.056 0.346-0.106 0.424-0.106 0.177 0 1.427-0.629 1.695-0.855 0.897-0.742 1.356-1.286 1.745-2.077 0.452-0.911 0.579-1.469 0.579-2.543 0-1.632-0.502-2.868-1.632-4.012-0.579-0.586-1.526-1.18-2.098-1.328-0.12-0.028-0.311-0.085-0.431-0.127-0.113-0.042-0.424-0.092-0.685-0.12-0.254-0.021-0.516-0.078-0.572-0.12-0.078-0.064-0.127-0.332-0.177-0.932-0.099-1.095-0.346-2.006-0.728-2.649-0.035-0.056-0.099-0.184-0.134-0.276-0.155-0.353-0.749-1.187-1.201-1.66-1.053-1.123-2.811-2.162-4.026-2.373-0.177-0.035-0.445-0.092-0.6-0.134-0.424-0.113-2.402-0.092-2.79 0.035z"></path>
<path d="M15.378 11.769c-0.028 0.028-0.049 3.737-0.049 8.244s-0.014 8.208-0.028 8.23c-0.021 0.014-0.834-0.742-1.808-1.688-0.982-0.947-1.823-1.738-1.886-1.745-0.106-0.028-0.607 0.41-0.728 0.629-0.049 0.092 0.325 0.502 1.815 1.978 2.939 2.91 3.207 3.172 3.249 3.172 0.021 0 0.932-0.883 2.027-1.964 1.088-1.081 2.232-2.197 2.536-2.487 0.297-0.283 0.544-0.558 0.544-0.608 0-0.12-0.65-0.735-0.777-0.735-0.064 0-0.41 0.304-0.777 0.678s-1.18 1.159-1.801 1.745l-1.13 1.074-0.071-16.53-0.53-0.021c-0.297-0.007-0.558 0-0.586 0.028z"></path>
</symbol>
<symbol id="icon-file" viewBox="0 0 32 32">
<title>file</title>
<path d="M5.143 2.857v0.571h21.714v-1.143h-21.714v0.571z"></path>
<path d="M2.857 5.143v0.571h26.286v-1.143h-26.286v0.571z"></path>
<path d="M0 18.286v11.429h32v-22.857h-32v11.429zM30.857 18.286v10.286h-29.714v-20.571h29.714v10.286z"></path>
</symbol>
<symbol id="icon-lab" viewBox="0 0 32 32">
<title>lab</title>
<path d="M10.286 0.571c0 0.505 0.067 0.571 0.571 0.571h0.571v9.019l-4.105 6.905c-4.867 8.21-4.914 8.314-4.924 10.076-0.019 2.41 1.038 4 3.038 4.581 1.819 0.533 20.867 0.324 21.914-0.238 1.657-0.886 2.514-2.733 2.276-4.886-0.181-1.61-0.143-1.533-4.848-9.41l-4.21-7.057v-8.99h0.571c0.505 0 0.571-0.067 0.571-0.571 0-0.571 0-0.571-1.143-0.571h-1.143v10.571l4.381 7.305c5.095 8.505 5.305 9.019 4.4 11-0.905 2-1.010 2.010-12.6 1.943l-9.829-0.057-0.705-0.476c-1.029-0.695-1.733-2.21-1.59-3.429 0.143-1.171 0.105-1.105 4-7.667l3.248-5.476h4.124v-1.143h-3.448l0.495-0.81c0.276-0.448 0.552-0.962 0.61-1.143 0.086-0.286 0.352-0.333 1.79-0.333h1.695v-1.143h-3.429v-2.286h1.143c1.143 0 1.143 0 1.143-0.571s0-0.571-1.143-0.571h-1.143v-2.286h3.429v-1.143h-3.429v-2.286h-1.143c-1.143 0-1.143 0-1.143 0.571z"></path>
<path d="M7.79 20.505c-3.39 5.638-3.733 6.733-2.6 8.181 0.8 1.019 0.905 1.029 10.752 1.029 10.229-0.010 10.324-0.019 11.029-1.362 0.876-1.648 0.686-2.171-2.914-8.114l-2.562-4.238h-11l-2.705 4.505zM23.4 21.39c4.495 7.467 4.762 7.219-7.771 7.143-10.333-0.067-9.829 0.029-9.686-1.781 0.067-0.829 3.819-7.648 5.162-9.371 0.133-0.181 1.352-0.238 4.962-0.229l4.79 0.010 2.543 4.229z"></path>
</symbol>
<symbol id="icon-lamp" viewBox="0 0 32 32">
<title>lamp</title>
<path d="M14.702 0.646c-0.267 0.035-0.618 0.091-0.772 0.133s-0.407 0.098-0.561 0.133c-0.33 0.063-0.695 0.189-0.968 0.323-0.112 0.056-0.232 0.098-0.26 0.098-0.084 0-1.032 0.463-1.298 0.632-0.112 0.077-0.26 0.161-0.316 0.189-0.239 0.105-1.207 0.884-1.656 1.333-0.428 0.414-1.361 1.558-1.361 1.663 0 0.021-0.091 0.168-0.197 0.337-0.218 0.33-0.575 1.060-0.737 1.495-0.239 0.667-0.274 0.786-0.33 1.088-0.035 0.175-0.098 0.407-0.14 0.526-0.056 0.14-0.091 0.695-0.091 1.614 0 1.411 0.021 1.593 0.316 2.456 0.035 0.112 0.091 0.302 0.119 0.421 0.056 0.211 0.379 0.961 0.505 1.158 0.035 0.056 0.084 0.154 0.105 0.211 0.084 0.218 0.105 0.253 0.239 0.456 0.077 0.112 0.161 0.26 0.189 0.316 0.063 0.133 0.884 1.354 1.074 1.6 1.719 2.218 2.533 3.832 2.737 5.432 0.035 0.267 0.084 0.512 0.112 0.561 0.028 0.042 0.070 0.526 0.091 1.067l0.042 0.989 8.807 0.035v-0.786c0-0.73 0.112-1.642 0.288-2.337 0.042-0.154 0.098-0.393 0.133-0.526 0.077-0.316 0.246-0.779 0.449-1.221 0.091-0.197 0.182-0.407 0.211-0.463 0.021-0.056 0.105-0.203 0.182-0.316 0.077-0.119 0.168-0.274 0.211-0.351 0.112-0.218 0.218-0.379 0.639-0.947 0.211-0.288 0.456-0.639 0.54-0.779s0.225-0.33 0.309-0.421c0.211-0.225 0.87-1.172 1.039-1.502 0.042-0.077 0.133-0.239 0.211-0.351 0.077-0.119 0.154-0.26 0.182-0.316 0.021-0.056 0.070-0.154 0.105-0.211s0.084-0.154 0.105-0.211c0.028-0.056 0.126-0.281 0.225-0.491s0.203-0.484 0.232-0.597c0.028-0.119 0.084-0.309 0.119-0.421 0.295-0.856 0.316-1.053 0.316-2.421 0-0.891-0.028-1.467-0.084-1.649-0.049-0.154-0.112-0.407-0.147-0.561-0.049-0.267-0.091-0.393-0.33-1.053-0.161-0.435-0.519-1.165-0.737-1.495-0.105-0.168-0.197-0.316-0.197-0.337 0-0.098-0.912-1.214-1.333-1.642-0.449-0.442-1.439-1.242-1.684-1.354-0.056-0.028-0.197-0.112-0.316-0.189-0.267-0.168-1.214-0.632-1.298-0.632-0.028 0-0.147-0.042-0.26-0.098-0.274-0.133-0.639-0.26-0.968-0.323-0.154-0.035-0.407-0.091-0.561-0.133-0.814-0.204-2.204-0.26-3.228-0.133zM17.579 1.867c0.274 0.063 0.589 0.14 0.702 0.182 0.119 0.035 0.309 0.098 0.421 0.126 0.379 0.105 0.737 0.253 0.821 0.337 0.049 0.049 0.14 0.084 0.203 0.084s0.154 0.049 0.203 0.105c0.049 0.056 0.126 0.105 0.175 0.105 0.042 0 0.211 0.091 0.358 0.196 0.154 0.112 0.309 0.218 0.358 0.232 0.133 0.049 0.737 0.568 1.214 1.046 0.54 0.54 0.926 1.003 1.221 1.467 0.119 0.182 0.253 0.393 0.302 0.47 0.126 0.197 0.54 1.067 0.667 1.397 0.302 0.779 0.547 1.993 0.547 2.702 0 0.66-0.295 2.063-0.533 2.547-0.056 0.112-0.098 0.26-0.098 0.33 0 0.063-0.049 0.161-0.105 0.211s-0.105 0.126-0.105 0.175c0 0.042-0.077 0.225-0.175 0.393s-0.197 0.358-0.225 0.414c-0.084 0.182-0.898 1.361-1.060 1.537-0.056 0.056-0.175 0.232-0.274 0.386-0.105 0.161-0.365 0.526-0.582 0.814s-0.421 0.575-0.449 0.632c-0.056 0.119-0.147 0.267-0.414 0.681-0.098 0.161-0.288 0.491-0.407 0.737s-0.26 0.533-0.316 0.639c-0.056 0.112-0.098 0.253-0.098 0.323 0 0.063-0.035 0.154-0.077 0.197s-0.105 0.203-0.133 0.351c-0.035 0.147-0.091 0.358-0.126 0.477-0.147 0.428-0.288 1.207-0.33 1.818-0.021 0.344-0.070 0.667-0.112 0.723-0.049 0.056-0.232 0.091-0.456 0.091-0.302 0-0.386-0.028-0.449-0.14-0.049-0.098-0.070-1.326-0.056-3.951l0.021-3.803 0.295-0.526c0.168-0.288 0.316-0.575 0.337-0.632 0.028-0.056 0.070-0.154 0.105-0.211 0.182-0.316 0.561-1.109 0.561-1.172 0-0.042 0.049-0.112 0.105-0.161s0.105-0.14 0.105-0.211c0-0.070 0.049-0.161 0.105-0.211s0.105-0.14 0.105-0.211c0-0.070 0.049-0.161 0.105-0.211s0.105-0.133 0.105-0.197c0-0.056 0.049-0.161 0.112-0.232 0.182-0.204 0.056-0.274-0.526-0.274h-0.547l-0.351 0.716c-0.197 0.4-0.372 0.772-0.4 0.828-0.021 0.056-0.070 0.154-0.105 0.211s-0.084 0.154-0.105 0.211c-0.021 0.056-0.070 0.154-0.105 0.211s-0.084 0.154-0.105 0.211c-0.021 0.056-0.070 0.154-0.105 0.211s-0.253 0.47-0.477 0.912l-0.407 0.807-0.070 7.789h-2.035l-0.070-7.789-0.393-0.772c-0.218-0.428-0.414-0.821-0.442-0.877-0.021-0.056-0.070-0.154-0.105-0.211s-0.084-0.154-0.105-0.211c-0.021-0.056-0.070-0.154-0.105-0.211s-0.084-0.154-0.105-0.211c-0.021-0.056-0.070-0.154-0.105-0.211s-0.232-0.442-0.435-0.863l-0.365-0.751h-0.547c-0.547 0-0.702 0.063-0.561 0.239 0.049 0.056 0.533 0.975 1.081 2.049l0.996 1.958 0.021 3.789c0.007 2.084 0 3.86-0.021 3.951-0.035 0.14-0.084 0.154-0.449 0.154-0.274 0-0.442-0.035-0.498-0.098-0.042-0.056-0.105-0.428-0.133-0.828-0.035-0.4-0.091-0.814-0.14-0.919-0.042-0.112-0.077-0.302-0.077-0.421-0.007-0.126-0.049-0.302-0.105-0.4s-0.098-0.246-0.105-0.33c0-0.14-0.042-0.26-0.316-0.898-0.119-0.281-0.604-1.263-0.723-1.46-0.288-0.491-1.333-2-1.621-2.344-0.042-0.042-0.239-0.323-0.442-0.618-1.102-1.6-1.537-2.568-1.839-4.14-0.182-0.926-0.112-1.909 0.211-3.053 0.182-0.625 0.618-1.635 0.891-2.063 0.049-0.077 0.182-0.288 0.302-0.47 0.295-0.463 0.681-0.926 1.221-1.467 0.477-0.477 1.081-0.997 1.214-1.046 0.049-0.014 0.204-0.119 0.358-0.232 0.147-0.105 0.316-0.196 0.358-0.196 0.049 0 0.126-0.049 0.175-0.105s0.14-0.105 0.204-0.105c0.063 0 0.154-0.035 0.204-0.084 0.084-0.084 0.442-0.232 0.821-0.337 0.119-0.028 0.309-0.091 0.421-0.126 0.639-0.218 1.116-0.274 2.281-0.288 0.905-0.007 1.361 0.021 1.719 0.105z"></path>
<path d="M12.646 26.049c-0.091 0.091-0.112 0.884-0.028 1.025 0.049 0.070 0.765 0.084 3.354 0.070l3.291-0.021v-1.123l-3.263-0.021c-2.484-0.014-3.291 0.007-3.354 0.070z"></path>
<path d="M12.639 28.309c-0.049 0.063-0.077 0.281-0.063 0.547l0.021 0.442h6.667l0.021-0.484c0.014-0.344-0.007-0.505-0.070-0.54-0.049-0.035-1.53-0.063-3.291-0.063-2.674 0-3.214 0.014-3.284 0.098z"></path>
<path d="M13.768 30.47c-0.091 0.091-0.112 0.884-0.028 1.025 0.049 0.063 0.54 0.084 2.232 0.070l2.168-0.021 0.021-0.519c0.014-0.372-0.007-0.54-0.070-0.575-0.154-0.098-4.225-0.077-4.323 0.021z"></path>
</symbol>
<symbol id="icon-pixel" viewBox="0 0 32 32">
<title>pixel</title>
<path d="M9.975 0.383c-0.033 0.033-0.058 0.75-0.058 1.592v1.525l0.217 0.083c0.275 0.108 0.792 0.108 1.075 0l0.208-0.083-0.017-1.558-0.025-1.567-0.667-0.025c-0.375-0.008-0.7 0-0.733 0.033z"></path>
<path d="M3.567 3.258c-0.225 0.233-0.4 0.442-0.4 0.475 0 0.1 2.2 2.267 2.3 2.267 0.117 0 0.867-0.742 0.867-0.858s-2.183-2.308-2.292-2.3c-0.042 0.008-0.258 0.192-0.475 0.417z"></path>
<path d="M16.1 3.942c-0.608 0.617-1.1 1.15-1.1 1.2 0 0.117 0.75 0.858 0.867 0.858 0.108 0 2.3-2.175 2.3-2.275 0-0.083-0.825-0.892-0.908-0.892-0.033 0-0.55 0.5-1.158 1.108z"></path>
<path d="M9.225 8.733c-0.717 0.717-1.308 1.35-1.308 1.408 0 0.142 20.825 20.942 20.975 20.942 0.125 0 2.775-2.592 2.775-2.717 0-0.133-20.875-20.95-21-20.95-0.067 0-0.717 0.592-1.442 1.317zM21.608 20.183c4.433 4.425 8.058 8.108 8.058 8.175 0 0.117-0.692 0.808-0.808 0.808-0.042 0-3.758-3.692-8.275-8.208l-8.208-8.208 0.45-0.417c0.383-0.358 0.467-0.4 0.583-0.317 0.075 0.058 3.758 3.733 8.2 8.167z"></path>
<path d="M0.225 9.558c-0.033 0.025-0.058 0.325-0.058 0.667v0.608l1.65-0.017 1.642-0.025 0.008-0.542c0.008-0.3-0.025-0.592-0.075-0.65-0.058-0.075-0.483-0.1-1.6-0.1-0.833 0-1.542 0.025-1.567 0.058z"></path>
<path d="M17.975 9.55c-0.033 0.033-0.058 0.333-0.058 0.675v0.608h3.258l-0.025-0.65-0.025-0.642-1.55-0.025c-0.85-0.008-1.567 0.008-1.6 0.033z"></path>
<path d="M4.275 15.767c-0.608 0.608-1.108 1.142-1.108 1.192 0 0.133 0.8 0.9 0.908 0.867 0.15-0.058 2.258-2.183 2.258-2.283 0-0.108-0.767-0.875-0.875-0.875-0.033 0-0.567 0.492-1.183 1.1z"></path>
<path d="M9.958 17.183c-0.025 0.067-0.033 0.792-0.025 1.608l0.025 1.5h1.417v-3.167l-0.692-0.025c-0.508-0.017-0.7 0.008-0.725 0.083z"></path>
</symbol>
<symbol id="icon-world" viewBox="0 0 32 32">
<title>world</title>
<path d="M14.222 0.551c-0.364 0.036-0.862 0.116-1.111 0.169-0.24 0.044-0.622 0.116-0.844 0.16-0.222 0.036-0.489 0.116-0.596 0.169-0.107 0.062-0.276 0.107-0.373 0.107s-0.329 0.062-0.516 0.142c-0.187 0.080-0.48 0.204-0.649 0.276-0.836 0.356-1.467 0.649-1.822 0.853-1.396 0.8-2.258 1.467-3.431 2.631-1.111 1.111-2.204 2.533-2.596 3.387-0.036 0.071-0.16 0.311-0.284 0.524s-0.222 0.444-0.222 0.498c0 0.062-0.062 0.16-0.133 0.222s-0.133 0.187-0.133 0.267c0 0.089-0.053 0.276-0.124 0.418-0.258 0.516-0.409 0.924-0.409 1.102 0 0.098-0.044 0.267-0.107 0.373-0.053 0.107-0.133 0.373-0.169 0.596s-0.107 0.578-0.16 0.8c-0.133 0.596-0.276 2.089-0.276 2.844s0.142 2.249 0.276 2.844c0.053 0.222 0.124 0.578 0.16 0.8s0.116 0.489 0.169 0.596c0.062 0.107 0.107 0.276 0.107 0.373 0 0.178 0.151 0.587 0.409 1.102 0.071 0.142 0.124 0.329 0.124 0.418 0 0.080 0.062 0.204 0.133 0.267s0.133 0.16 0.133 0.222c0 0.053 0.098 0.284 0.222 0.498s0.249 0.453 0.284 0.524c0.391 0.853 1.484 2.276 2.596 3.387 1.173 1.164 2.036 1.831 3.431 2.631 0.356 0.196 1.164 0.578 1.84 0.862 0.16 0.071 0.444 0.187 0.631 0.267s0.418 0.142 0.516 0.142c0.098 0 0.267 0.044 0.373 0.107 0.107 0.053 0.373 0.133 0.596 0.169s0.578 0.107 0.8 0.16c0.596 0.133 2.089 0.276 2.844 0.276s2.249-0.142 2.844-0.276c0.222-0.053 0.578-0.124 0.8-0.16s0.489-0.116 0.596-0.169c0.107-0.062 0.276-0.107 0.373-0.107 0.178 0 0.587-0.151 1.102-0.409 0.142-0.071 0.329-0.124 0.418-0.124 0.080 0 0.204-0.062 0.267-0.133s0.16-0.133 0.222-0.133c0.053 0 0.284-0.098 0.498-0.222s0.453-0.249 0.524-0.284c1.911-0.889 5.093-4.071 5.982-5.982 0.036-0.071 0.16-0.311 0.284-0.524s0.222-0.444 0.222-0.498c0-0.062 0.062-0.16 0.133-0.222s0.133-0.187 0.133-0.267c0-0.089 0.053-0.276 0.124-0.418 0.258-0.516 0.409-0.924 0.409-1.102 0-0.098 0.044-0.267 0.107-0.373 0.053-0.107 0.133-0.373 0.169-0.596s0.107-0.578 0.16-0.8c0.133-0.596 0.276-2.089 0.276-2.844s-0.142-2.249-0.276-2.844c-0.053-0.222-0.124-0.578-0.16-0.8s-0.116-0.489-0.169-0.596c-0.062-0.107-0.107-0.276-0.107-0.373 0-0.178-0.151-0.587-0.409-1.102-0.071-0.142-0.124-0.329-0.124-0.418 0-0.080-0.062-0.204-0.133-0.267s-0.133-0.16-0.133-0.222c0-0.053-0.098-0.284-0.222-0.498s-0.249-0.453-0.284-0.524c-0.889-1.911-4.071-5.093-5.982-5.982-0.071-0.036-0.311-0.16-0.524-0.284s-0.444-0.222-0.498-0.222c-0.062 0-0.16-0.062-0.222-0.133s-0.187-0.133-0.267-0.133c-0.089 0-0.276-0.053-0.418-0.124-0.516-0.258-0.924-0.409-1.102-0.409-0.098 0-0.267-0.044-0.373-0.107-0.107-0.053-0.373-0.133-0.596-0.169s-0.578-0.107-0.8-0.16c-1.156-0.258-3.147-0.329-4.533-0.169zM15.262 5.129c0.009 2.444-0.018 3.156-0.107 3.28-0.107 0.151-0.178 0.151-0.987 0.053-0.489-0.062-1.040-0.107-1.236-0.107s-0.551-0.062-0.791-0.133c-0.24-0.071-0.587-0.133-0.773-0.133-0.418 0-0.569-0.204-0.382-0.533 0.062-0.124 0.116-0.293 0.124-0.382 0-0.098 0.053-0.276 0.116-0.4 0.071-0.133 0.187-0.382 0.267-0.551 0.924-2.080 1.778-3.191 3.173-4.116 0.124-0.080 0.302-0.133 0.4-0.124 0.178 0.018 0.178 0.089 0.196 3.147zM17.067 2.089c0.062 0.071 0.169 0.133 0.231 0.133 0.196 0 1.502 1.333 1.92 1.956 0.756 1.147 1.822 3.609 1.636 3.796-0.027 0.036-0.249 0.089-0.48 0.116-0.231 0.036-0.658 0.107-0.951 0.16s-1.013 0.142-1.591 0.196c-0.987 0.098-1.076 0.089-1.182-0.053-0.089-0.124-0.116-0.853-0.116-3.236 0-1.698 0.027-3.111 0.062-3.138 0.098-0.107 0.356-0.071 0.471 0.071zM12.178 2.382c0 0.044-0.24 0.409-0.533 0.809-0.284 0.409-0.613 0.907-0.711 1.102-0.107 0.204-0.222 0.436-0.267 0.507-0.169 0.284-0.622 1.342-0.622 1.449 0 0.062-0.062 0.196-0.133 0.293-0.071 0.089-0.133 0.24-0.133 0.329 0 0.284-0.267 0.684-0.444 0.684-0.089 0-0.187-0.036-0.222-0.080-0.027-0.044-0.178-0.116-0.338-0.151-0.329-0.071-0.907-0.302-2.018-0.818-0.32-0.142-0.649-0.284-0.729-0.32-0.249-0.080-0.187-0.24 0.267-0.658 0.427-0.4 1.751-1.44 1.831-1.44 0.027 0 0.196-0.107 0.382-0.231s0.418-0.267 0.516-0.311c0.098-0.044 0.24-0.116 0.311-0.16 0.373-0.24 1.662-0.756 2.204-0.898 0.169-0.036 0.32-0.098 0.347-0.124 0.080-0.080 0.293-0.062 0.293 0.018zM20.178 2.427c0.222 0.062 0.489 0.16 0.596 0.222 0.107 0.053 0.24 0.107 0.293 0.107 0.124 0 1.804 0.827 2.178 1.067 0.151 0.098 0.329 0.204 0.4 0.24 0.24 0.107 1.547 1.129 1.938 1.502 0.409 0.4 0.453 0.551 0.222 0.622-0.089 0.036-0.418 0.178-0.738 0.32-1.111 0.516-1.689 0.747-2.018 0.818-0.16 0.036-0.311 0.107-0.338 0.151-0.16 0.24-0.667-0.080-0.667-0.418 0-0.107-0.053-0.311-0.124-0.453-0.071-0.133-0.258-0.569-0.418-0.96s-0.409-0.907-0.542-1.138c-0.133-0.231-0.249-0.444-0.249-0.462 0-0.080-0.827-1.253-1.049-1.493-0.204-0.213-0.213-0.24-0.053-0.24 0.089 0.009 0.347 0.053 0.569 0.116zM5.422 7.324c0.071 0.027 0.196 0.089 0.267 0.133s0.196 0.107 0.267 0.133c0.071 0.027 0.196 0.089 0.267 0.133s0.293 0.151 0.489 0.231c0.196 0.089 0.471 0.213 0.604 0.276 0.142 0.071 0.32 0.124 0.4 0.124s0.231 0.062 0.32 0.133c0.098 0.071 0.249 0.133 0.338 0.133 0.080 0 0.302 0.071 0.471 0.151 0.284 0.133 0.32 0.187 0.267 0.382-0.027 0.124-0.089 0.418-0.133 0.667-0.089 0.498-0.222 1.236-0.373 2.044-0.053 0.293-0.124 1.173-0.16 1.947-0.053 1.227-0.080 1.431-0.222 1.538-0.133 0.089-0.809 0.116-3.253 0.116-2.693 0-3.111-0.018-3.227-0.142-0.080-0.080-0.124-0.222-0.098-0.329s0.089-0.533 0.133-0.951c0.080-0.738 0.196-1.289 0.373-1.822 0.044-0.151 0.124-0.391 0.16-0.533 0.169-0.578 0.676-1.831 0.898-2.178 0.044-0.071 0.116-0.213 0.16-0.311s0.187-0.329 0.311-0.516c0.124-0.187 0.231-0.356 0.231-0.382 0-0.018 0.204-0.32 0.462-0.658 0.444-0.596 0.462-0.613 0.684-0.489 0.124 0.062 0.293 0.142 0.364 0.169zM27.449 7.644c0.249 0.338 0.462 0.64 0.462 0.658 0 0.027 0.107 0.196 0.231 0.382s0.267 0.418 0.311 0.516c0.044 0.098 0.116 0.24 0.16 0.311 0.231 0.356 0.756 1.653 0.889 2.178 0.036 0.151 0.116 0.356 0.169 0.462 0.062 0.107 0.107 0.284 0.107 0.391s0.053 0.4 0.124 0.649c0.178 0.622 0.311 1.929 0.213 2.116-0.071 0.151-0.32 0.16-3.298 0.16-2.391 0-3.253-0.027-3.333-0.107-0.071-0.071-0.107-0.427-0.107-1.004 0-1.324-0.462-4.507-0.747-5.209-0.071-0.169 0.453-0.524 0.764-0.524 0.098 0 0.284-0.053 0.409-0.124 0.133-0.071 0.418-0.196 0.64-0.276s0.507-0.204 0.64-0.276c0.124-0.071 0.293-0.124 0.364-0.124s0.178-0.062 0.24-0.133c0.062-0.071 0.178-0.133 0.267-0.133s0.204-0.062 0.267-0.133c0.062-0.071 0.178-0.133 0.267-0.133s0.204-0.062 0.267-0.133c0.062-0.071 0.133-0.133 0.169-0.133s0.267 0.276 0.524 0.622zM11.378 9.422c0.267 0.044 0.747 0.116 1.067 0.169s1.049 0.142 1.627 0.196c0.836 0.080 1.067 0.133 1.129 0.258 0.044 0.080 0.080 1.262 0.080 2.613 0.009 2.311 0 2.462-0.16 2.622-0.169 0.169-0.329 0.178-2.711 0.178-2.293 0-2.551-0.018-2.622-0.151-0.098-0.187 0.036-2.88 0.16-3.307 0.053-0.169 0.098-0.471 0.098-0.667s0.062-0.551 0.133-0.791c0.071-0.24 0.133-0.542 0.133-0.667 0-0.329 0.249-0.658 0.436-0.587 0.080 0.036 0.364 0.098 0.631 0.133zM21.502 10.009c0.036 0.24 0.116 0.676 0.169 0.969 0.267 1.431 0.382 2.649 0.356 3.511l-0.027 0.933-2.622 0.027c-2.382 0.018-2.631 0.009-2.729-0.133-0.089-0.107-0.116-0.8-0.116-2.702 0-1.929 0.027-2.569 0.116-2.64 0.053-0.053 0.587-0.133 1.173-0.196 0.587-0.053 1.307-0.142 1.6-0.187 0.293-0.053 0.764-0.133 1.049-0.169s0.542-0.098 0.578-0.124c0.116-0.124 0.382 0.293 0.453 0.711zM8.213 16.827c0.142 0.107 0.178 0.32 0.24 1.627 0.036 0.827 0.116 1.644 0.16 1.813 0.053 0.169 0.098 0.471 0.098 0.667s0.044 0.498 0.098 0.667c0.044 0.169 0.124 0.533 0.169 0.8s0.107 0.569 0.133 0.667c0.044 0.151-0.009 0.213-0.267 0.338-0.178 0.080-0.391 0.151-0.471 0.151-0.089 0-0.24 0.062-0.338 0.133-0.089 0.071-0.24 0.133-0.32 0.133s-0.258 0.053-0.4 0.124c-0.133 0.062-0.391 0.178-0.56 0.258-0.169 0.071-0.676 0.311-1.12 0.533l-0.818 0.4-0.427-0.587c-0.24-0.32-0.569-0.809-0.729-1.076-0.16-0.276-0.329-0.56-0.373-0.631-0.053-0.071-0.107-0.187-0.133-0.249-0.027-0.053-0.062-0.16-0.089-0.222-0.027-0.053-0.080-0.169-0.116-0.24-0.178-0.302-0.498-1.138-0.64-1.644-0.044-0.151-0.116-0.391-0.16-0.533-0.178-0.533-0.293-1.084-0.373-1.822-0.044-0.418-0.107-0.844-0.133-0.951s0.018-0.249 0.098-0.329c0.116-0.124 0.533-0.142 3.227-0.142 2.436 0 3.12 0.027 3.244 0.116zM15.129 16.862c0.151 0.133 0.16 0.338 0.16 2.702 0 1.902-0.027 2.578-0.107 2.622-0.142 0.089-1.609 0.293-2.116 0.302-0.356 0-1.004 0.107-2.089 0.356-0.311 0.071-0.373 0.062-0.507-0.098-0.089-0.107-0.16-0.302-0.16-0.436s-0.062-0.436-0.133-0.676c-0.071-0.24-0.133-0.596-0.133-0.791s-0.044-0.516-0.098-0.711c-0.133-0.507-0.258-3.076-0.151-3.271 0.071-0.142 0.284-0.151 2.622-0.151 2.24 0 2.569 0.018 2.711 0.151zM22.027 17.689c0.027 0.862-0.089 2.080-0.356 3.511-0.053 0.293-0.124 0.729-0.169 0.969-0.098 0.604-0.258 0.756-0.684 0.667-1.289-0.276-1.707-0.347-2.062-0.347-0.507-0.009-1.973-0.213-2.116-0.302-0.080-0.044-0.107-0.72-0.107-2.604 0-2.249 0.018-2.569 0.151-2.711 0.133-0.151 0.311-0.16 2.729-0.142l2.587 0.027 0.027 0.933zM30.080 16.853c0.080 0.080 0.124 0.222 0.098 0.329s-0.089 0.533-0.133 0.951c-0.080 0.738-0.196 1.289-0.373 1.822-0.044 0.142-0.124 0.382-0.16 0.533-0.116 0.4-0.347 1.004-0.569 1.502-0.116 0.249-0.231 0.516-0.267 0.587-0.027 0.071-0.133 0.249-0.231 0.4-0.098 0.142-0.213 0.347-0.267 0.444-0.187 0.356-0.32 0.551-0.747 1.129l-0.436 0.596-0.276-0.142c-0.151-0.080-0.338-0.169-0.409-0.213-0.196-0.107-0.889-0.436-1.244-0.587-0.169-0.080-0.427-0.196-0.56-0.258-0.142-0.071-0.32-0.124-0.4-0.124s-0.231-0.062-0.32-0.133c-0.098-0.071-0.249-0.133-0.338-0.133-0.16 0-0.871-0.32-0.871-0.391 0-0.018 0.062-0.178 0.133-0.347 0.071-0.178 0.133-0.453 0.133-0.613s0.062-0.489 0.133-0.729c0.071-0.24 0.133-0.604 0.133-0.8 0-0.204 0.062-0.684 0.133-1.076s0.124-1.164 0.133-1.716c0-0.951 0.009-1.004 0.204-1.084 0.107-0.044 1.582-0.080 3.28-0.080 2.684-0.009 3.102 0.009 3.218 0.133zM15.182 23.796c0.053 0.089 0.089 1.547 0.098 3.253 0.009 3.458 0.036 3.369-0.604 3.031-0.329-0.178-0.382-0.213-0.88-0.622-0.302-0.24-1.164-1.333-1.502-1.902-0.338-0.56-0.649-1.182-0.649-1.289 0-0.062-0.062-0.16-0.133-0.222s-0.133-0.196-0.133-0.302c0-0.098-0.062-0.267-0.133-0.356-0.071-0.098-0.133-0.258-0.133-0.364 0-0.098-0.062-0.267-0.133-0.373-0.16-0.231-0.089-0.462 0.169-0.507 0.098-0.018 0.427-0.080 0.72-0.142 0.293-0.053 0.951-0.142 1.467-0.187 0.507-0.053 0.942-0.107 0.969-0.124 0.018-0.027 0.213-0.044 0.418-0.044 0.276 0 0.409 0.044 0.462 0.151zM18.756 23.813c0.462 0.053 0.987 0.133 1.156 0.178 0.169 0.053 0.436 0.098 0.596 0.098 0.151 0 0.311 0.044 0.347 0.098 0.062 0.107-0.089 0.702-0.284 1.084-0.071 0.142-0.124 0.302-0.124 0.364 0 0.178-0.827 1.76-1.271 2.427-0.418 0.631-1.511 1.742-1.867 1.902-0.107 0.044-0.258 0.124-0.338 0.187-0.080 0.053-0.213 0.071-0.293 0.044-0.124-0.053-0.142-0.364-0.142-3.102 0-1.68 0.027-3.147 0.062-3.262 0.062-0.231-0.009-0.231 2.16-0.018zM9.644 24.889c0.071 0.142 0.133 0.329 0.133 0.418s0.062 0.24 0.133 0.329c0.071 0.098 0.133 0.231 0.133 0.293 0 0.107 0.453 1.164 0.622 1.449 0.044 0.071 0.16 0.302 0.267 0.507 0.098 0.196 0.427 0.693 0.711 1.102 0.293 0.4 0.533 0.764 0.533 0.818 0 0.044-0.089 0.053-0.196 0.018-0.116-0.027-0.32-0.089-0.471-0.133-0.596-0.169-1.84-0.684-2.178-0.898-0.071-0.044-0.213-0.116-0.311-0.16s-0.329-0.187-0.516-0.311c-0.187-0.124-0.356-0.231-0.382-0.231-0.080 0-1.404-1.040-1.831-1.44-0.24-0.213-0.427-0.436-0.427-0.489s0.169-0.178 0.382-0.276c1.084-0.507 1.458-0.667 1.662-0.738 0.391-0.116 1.173-0.427 1.227-0.48 0.124-0.124 0.382-0.018 0.507 0.222zM23.022 24.8c0.169 0.062 0.418 0.169 0.551 0.231 0.124 0.071 0.276 0.124 0.329 0.124 0.089 0 0.427 0.151 1.68 0.729 0.204 0.098 0.373 0.213 0.373 0.267 0 0.142-0.676 0.773-1.484 1.387-0.4 0.302-0.747 0.551-0.773 0.551s-0.196 0.107-0.382 0.231c-0.409 0.276-2.107 1.102-2.267 1.102-0.071 0-0.196 0.053-0.293 0.124-0.098 0.062-0.311 0.142-0.462 0.178-0.16 0.027-0.418 0.080-0.569 0.107l-0.276 0.062 0.462-0.569c0.249-0.311 0.498-0.649 0.542-0.747s0.16-0.302 0.249-0.444c0.098-0.151 0.32-0.569 0.498-0.933s0.373-0.782 0.444-0.916c0.071-0.142 0.133-0.32 0.133-0.4s0.062-0.231 0.133-0.32c0.071-0.098 0.133-0.258 0.133-0.364 0-0.098 0.062-0.276 0.142-0.391 0.151-0.213 0.24-0.213 0.836-0.009z"></path>
</symbol>
</defs>
</svg>
